<svg xmlns="http://www.w3.org/2000/svg" xmlns:xlink="http://www.w3.org/1999/xlink" version="1.1" id="Calque_1" x="0px" y="0px" viewBox="390 75.9548 1230 300.09" style="enable-background:new 390 76 1230 300;" xml:space="preserve" width="100%" height="100%"  preserveAspectRatio="xMidYMid meet"><rect id="svgEditorBackground" x="390" y="76" width="1230" height="300" style="fill: none; stroke: none;"/>
<style type="text/css">
	.st0{fill:#344358;font-family:Trebuchet MS;font-size:250px;font-weight:bold;}
	.st1{fill:#F39208;}
	.st2{fill:#FCC010;}
	.st3{fill:#F49619;}
	.st4{fill:#EC630E;}
</style>
<circle id="XMLID_2_" class="st0" cx="1427.483276365789" cy="255.20843505384505" r="25.9"/>
<circle id="XMLID_19_" class="st1" cx="1476.4425048828125" cy="194.4127655029297" r="30.8"/>
<circle id="XMLID_20_" class="st0" cx="1511.717407222091" cy="274.90838622566406" r="13"/>
<g>
	<path id="XMLID_59_" class="st2" d="M570.6,374.2c-81.9,0-148.2-66.3-148.2-148.2S488.9,77.6,570.8,77.6L570.6,374.2z"/>
	<path id="XMLID_58_" class="st3" d="M570.8,111.1v40.9v137.7v50.8c-63.5,0-114.9-51.3-114.9-114.9   C455.9,162.4,507.4,111,570.8,111.1z"/>
	<path id="XMLID_57_" class="st4" d="M570.8,152.1v137.7l-63.5-54.2c-5.8-5.1-6.2-14-0.8-19.4l64.2-64.2L570.8,152.1z"/>
</g>

<text style="" x="565.594" y="310.578" id="XMLID_61_"  dy="" dx="" class="st0">Oneoak</text></svg>