<svg width="1230" height="300.09" xmlns="http://www.w3.org/2000/svg" preserveAspectRatio="xMidYMid meet">

 <style type="text/css">.st0{fill:#344358;font-family:Trebuchet MS;font-size:250px;font-weight:bold;}
	.st1{fill:#F39208;}
	.st2{fill:#FCC010;}
	.st3{fill:#F49619;}
	.st4{fill:#EC630E;}</style>
 <g>
  <title>background</title>
  <rect fill="none" id="canvas_background" height="402" width="582" y="-1" x="-1"/>
 </g>
 <g>
  <title>Layer 1</title>
  <rect fill=" none" height="300" width="1230" y="2" x="29" id="svgEditorBackground"/>
  <circle r="25.9" cy="156.208435" cx="1107.483276" class="st0" id="XMLID_2_"/>
  <circle stroke="null" r="30.799999" cy="98.412766" cx="1143.442505" class="st1" id="XMLID_19_"/>
  <circle r="13" cy="150.908386" cx="1165.717407" class="st0" id="XMLID_20_"/>
  <g id="svg_1">
   <path d="m209.6,300.2c-81.9,0 -148.2,-66.3 -148.2,-148.2s66.5,-148.4 148.4,-148.4l-0.2,296.6z" class="st2" id="XMLID_59_"/>
   <path d="m209.8,37.1l0,40.9l0,137.7l0,50.8c-63.5,0 -114.9,-51.3 -114.9,-114.9c0,-63.2 51.5,-114.6 114.9,-114.5z" class="st3" id="XMLID_58_"/>
   <path d="m209.8,78.1l0,137.7l-63.5,-54.2c-5.8,-5.1 -6.2,-14 -0.8,-19.4l64.2,-64.2l0.1,0.1z" class="st4" id="XMLID_57_"/>
  </g>
  <text font-family="Euphoria, sans-serif" stroke="null" class="st0" id="XMLID_61_" y="242.578" x="212.594">Oneoak</text>
 </g>
</svg>